<svg width="60" height="60" viewBox="0 0 60 60" fill="none" xmlns="http://www.w3.org/2000/svg">
<path fill-rule="evenodd" clip-rule="evenodd" d="M28.5 15.4047C28.5 15.2493 28.5 15.1715 28.4495 15.1268C28.3989 15.082 28.3226 15.0913 28.17 15.1099C20.7489 16.0125 15 22.3346 15 29.9993C15 38.2836 21.7157 44.9993 30 44.9993C38.2843 44.9993 45 38.2836 45 29.9993C45 22.3346 39.2511 16.0125 31.83 15.1099C31.6774 15.0913 31.6011 15.082 31.5505 15.1268C31.5 15.1715 31.5 15.2493 31.5 15.4047V22.4995C31.5 23.3279 30.8284 23.9995 30 23.9995C29.1716 23.9995 28.5 23.3279 28.5 22.4995V15.4047Z" fill="#E7E7E7"/>
<path d="M30 22.5L30 10" stroke="#E7E7E7" stroke-linecap="round"/>
<path d="M45.5563 14.4436C48.6331 17.5204 50.7284 21.4404 51.5773 25.708C52.4262 29.9756 51.9905 34.3991 50.3254 38.419C48.6602 42.439 45.8404 45.8749 42.2225 48.2923C38.6047 50.7097 34.3512 52 30 52C25.6488 52 21.3953 50.7097 17.7775 48.2923C14.1596 45.8749 11.3398 42.439 9.67465 38.419C8.00952 34.3991 7.57385 29.9756 8.42272 25.708C9.2716 21.4404 11.3669 17.5204 14.4436 14.4437" stroke="#E7E7E7" stroke-linecap="round"/>
</svg>
